<svg version="1.2" xmlns="http://www.w3.org/2000/svg" viewBox="0 0 215 226" width="215" height="226">
	<title>mindyfooter-svg</title>
	<style>
		.s0 { fill: #000000 } 
	</style>
	<g id="Layer">
		<path id="Layer" class="s0" d="m106.6 7.7l3.9 5.7 0.3-5.7c0.4-8.1 2.2-7.1 2.2 1.3 0 8.7-1.6 9.2-6.2 2-1.8-2.7-3.7-5-4.1-5-0.4 0-0.5 2.2-0.1 5 0.7 5.1-0.8 7.2-2 2.7-0.8-3-0.8-10.2 0.1-11 1.2-1.3 2-0.7 5.9 5z"/>
		<path id="Layer" fill-rule="evenodd" class="s0" d="m126.9 4.1c4 1.4 5.6 5 3.9 8.7-1.7 3.4-4.8 4.9-9.3 4.4l-3.7-0.4 0.7-5.2c0.4-2.8 0.9-5.9 1.1-6.9 0.6-2 2.8-2.2 7.3-0.6zm-6.2 7.1c-0.6 3.7 0.4 4.8 3.8 4.8 4.2 0 6.2-8 2.6-10-4.4-2.3-5.5-1.5-6.4 5.2z"/>
		<path id="Layer" class="s0" d="m93.3 4.7c1.1 1.8 1.8 13.3 0.9 13.3-0.5 0-1.3-2.5-1.7-5.7-0.4-3.1-0.9-6.2-1.2-7-0.5-1.4 1.2-1.9 2-0.6z"/>
		<path id="Layer" class="s0" d="m86 11.6c2.3 7.6 2.3 7.4 1.1 7.4-0.5 0-1.7-2.4-2.7-5.3l-1.8-5.2-0.7 5.8c-0.3 3.2-0.9 6.1-1.3 6.4-0.4 0.4-2.5-1.3-4.7-3.7-2.2-2.5-3.8-3.7-3.5-2.8 0.2 0.9 0.8 3.4 1.2 5.5 0.9 5.1-0.8 3.3-3-3.1-3-9.2-1.6-10 4.9-2.9l4.3 4.8 0.7-6c0.4-3.3 0.9-6.3 1.2-6.8 1.1-1.9 2.4-0.2 4.3 5.9z"/>
		<path id="Layer" class="s0" d="m138.8 6.4c0.6 0.3 1.4 2.7 1.8 5.1 0.3 2.5 0.9 4.5 1.3 4.5 0.4 0 2-1.4 3.6-3 1.6-1.7 3.6-3 4.4-3 0.8 0-0.8 2.1-3.7 4.8-2.9 2.7-5.2 5.4-5.2 6.2 0 3.1-1.4-0.4-1.6-3.8 0-2-0.5-5.5-0.9-7.6-0.5-2.7-0.4-3.7 0.3-3.2z"/>
		<path id="Layer" fill-rule="evenodd" class="s0" d="m126.1 36.4c23.9 5.1 45.5 23.5 54.8 46.7 4.3 10.9 5.4 18 4.9 32.6-0.4 10.5-0.9 14.2-3.2 20.8-9 26.4-32.5 47-59 51.6-10.2 1.7-29.4 0.7-37.6-2.1-33.4-11.3-54-39.6-54-74 0-30 15.9-55.8 42.6-69.3 5.1-2.6 15.8-6.2 20.4-7 6-1 25-0.6 31.1 0.7zm-0.9 17.8c-1.9 2.4-6.3 15.1-12.3 36.3-6.8 23.4-8.5 28.3-9.8 26.9-0.5-0.5-1.6-7.5-2.5-15.5-2-17.9-3.4-23.4-6.1-23.4-2.7 0-5.8 9.3-9 27.7-4.3 24.1-4.5 23.6-3.9-11 0.4-27.7 0.3-32.2-0.9-32.2-1.2 0-1.6 3.8-2.2 22.2-0.3 12.3-0.5 28.8-0.3 36.8 0.3 12.6 0.5 14.5 2 14.8 2.1 0.4 3-2.6 6.3-22.3 3.2-18.4 6.4-32.5 7.5-32.5 0.9 0 2.7 11.4 4.2 27 1.4 15 3.5 17.5 7.7 9.2 1-2 5.3-15.1 9.5-29.1 4.2-14 8.1-26.1 8.6-27 1.5-2.6 1.2 3.4-1.5 27.9-4 35.8-5.5 52.9-5.5 62.2 0 7.9 0.2 8.8 1.9 8.8 2.7 0 3.3-1 11.1-19 3.9-9.1 8.2-18.2 9.6-20.3 1.4-2.2 2.3-4.1 2.1-4.4-1.1-1-6.2 7.4-13.7 22.8l-8.1 16.4 0.6-11.3c0.4-6.2 1.7-21.3 3-33.5 4.3-39.5 5.8-55.5 5.2-57.1-0.8-1.9-2.1-2-3.5-0.4z"/>
		<path id="Layer" fill-rule="evenodd" class="s0" d="m7.2 100.2c1.7 0.2 2.3 1 2.3 2.8 0 1.8-0.6 2.6-2.3 2.8-2.4 0.4-3.8-1.8-2.8-4.4 0.3-0.9 1.5-1.4 2.8-1.2zm-0.2 1.8c-0.5 0-1 0.4-1 1 0 0.5 0.5 1 1 1 0.6 0 1-0.5 1-1 0-0.6-0.4-1-1-1z"/>
		<path id="Layer" fill-rule="evenodd" class="s0" d="m209.2 100.2c1.7 0.2 2.3 1 2.3 2.8 0 1.8-0.6 2.6-2.3 2.8-2.4 0.4-3.8-1.8-2.8-4.4 0.3-0.9 1.5-1.4 2.8-1.2zm-0.2 1.8c-0.5 0-1 0.4-1 1 0 0.5 0.5 1 1 1 0.6 0 1-0.5 1-1 0-0.6-0.4-1-1-1z"/>
		<path id="Layer" fill-rule="evenodd" class="s0" d="m60.1 194.5c4 2.1 5.9 4.4 5.9 7.1 0 3.7-3.8 5.1-7.9 2.9-3.1-1.6-3.3-1.5-4.6 0.2-2.9 4-2.5 0.1 0.6-5.6 3.3-5.9 3.3-5.9 6-4.6zm-1.3 1.5c-0.8 0-2.8 3.4-2.8 4.8 0 1.3 5.6 3.5 6.9 2.7 1.8-1.1 1.2-4.3-1.1-5.9-1.2-0.9-2.6-1.6-3-1.6z"/>
		<path id="Layer" fill-rule="evenodd" class="s0" d="m163.6 201.5c-0.9 1.4-2.5 2.9-3.6 3.5-1.6 0.8-1.9 1.7-1.4 3.7 1 4-1.2 2-4.1-3.7-3.1-6.2-3.1-6.6 0.3-8.4 6.4-3.5 12.2-0.3 8.8 4.9zm-8-3.2c-1.6 1.2-1.7 1.6-0.5 3.5 1.7 2.7 3 2.8 6 0.4 1.4-1.2 2-2.5 1.6-3.5-0.8-2-4.6-2.2-7.1-0.4z"/>
		<path id="Layer" class="s0" d="m79.5 203.6l3 1.4-3-0.4c-1.6-0.3-3.7-0.7-4.6-1.1-1.1-0.4-1.8 0.1-2.2 1.5-0.4 1.6 0.1 2.3 1.9 3.1 1.4 0.5 3 0.9 3.5 0.9 0.5 0 0.9 0.5 0.9 1.1 0 0.6-0.7 0.8-1.6 0.5-4.7-1.8-6.1-1.7-6.7 0.4-0.3 1.2 0 2.3 0.6 2.5 5.3 1.9 7 2.9 5.7 3.2-2 0.5-9-2.4-9-3.7 0-0.5 0.9-3.4 2.1-6.5 2.3-6.1 2.4-6.1 9.4-2.9z"/>
		<path id="Layer" fill-rule="evenodd" class="s0" d="m149.6 208.6c0.7 3.8-2.5 7.4-6.6 7.4-6.1 0-9.3-7.7-5-12 4.1-4.1 10.3-1.7 11.6 4.6zm-10.4-3.4c-1.8 1.8-1.4 5.6 0.8 7.8 2.5 2.5 3.5 2.5 6.1-0.1 2-2 1.9-4.8-0.3-7.7-1.3-1.5-5-1.6-6.6 0z"/>
		<path id="Layer" class="s0" d="m87.6 205.4c7.9 1.4 9.4 1.8 9.4 2.6 0 0.5-1.2 0.8-2.7 0.7-2.7-0.2-2.8 0.1-3.7 5.5-1.3 8-2.9 7.4-2.1-0.7 0.7-6.1 0.6-6.5-1.3-6.5-1.2 0-2.4-0.5-2.8-1.1-0.5-0.9 0.4-1 3.2-0.5z"/>
		<path id="Layer" class="s0" d="m128.8 206c0.6 0 1.3 1.9 1.7 4.2 0.3 2.4 0.8 5.5 1.1 7 0.3 1.7 0.1 2.8-0.5 2.8-0.7 0-1.4-1.4-1.7-3-0.5-2.4-1.2-3-3.3-3-3.9 0-5.4 1.4-4.9 4.4 0.4 1.8 0.1 2.6-0.8 2.6-0.8 0-1.4-0.8-1.4-1.8 0-0.9-0.3-4.1-0.7-7.1-0.4-4-0.3-5.2 0.5-4.7 0.7 0.4 1.2 1.8 1.2 3.2 0 2.5 0.8 2.8 5.7 1.8 2.6-0.5 2.9-0.9 2.5-3.5-0.2-1.6 0-2.9 0.6-2.9z"/>
		<path id="Layer" class="s0" d="m109.8 207.6c3.6 1 2.5 2.1-2 2-3.2-0.1-4.3 0.3-4.6 1.6-0.2 1.2 0.7 1.9 3.9 2.5 5.7 1.1 7.3 3.7 3.9 6.5-1.8 1.5-3.3 1.8-5.9 1.4-5.8-0.9-6.1-2.6-0.4-2 4 0.5 5.1 0.3 5.6-1 0.7-1.8-1.9-3.6-5.2-3.6-2.6 0-5.2-2.7-4.4-4.6 0.3-0.9 1.5-2 2.7-2.4 2.6-1.1 3.5-1.1 6.4-0.4z"/>
	</g>
</svg>